<?xml version="1.0" standalone="no"?>
<!DOCTYPE svg PUBLIC "-//W3C//DTD SVG 20010904//EN"
 "http://www.w3.org/TR/2001/REC-SVG-20010904/DTD/svg10.dtd">
<svg version="1.0" xmlns="http://www.w3.org/2000/svg"
 width="444.000000pt" height="444.000000pt" viewBox="0 0 444.000000 444.000000"
 preserveAspectRatio="xMidYMid meet">
<metadata>
Created by potrace 1.14, written by Peter Selinger 2001-2017
</metadata>
<g transform="translate(0.000000,444.000000) scale(0.100000,-0.100000)"
fill="#000000" stroke="none">
<path d="M2195 4418 c-2 -7 -6 -29 -9 -48 -3 -20 -20 -53 -38 -74 -98 -119
-284 -93 -343 47 -12 29 -21 37 -40 37 -23 0 -25 -4 -25 -47 -1 -134 -119
-232 -246 -204 -53 12 -119 58 -129 91 -7 21 -49 28 -60 10 -3 -5 -1 -28 5
-51 22 -81 -22 -180 -98 -218 -86 -43 -160 -35 -232 26 -39 34 -42 35 -60 18
-19 -17 -19 -18 1 -58 30 -57 23 -141 -15 -196 -33 -47 -113 -91 -166 -91 -20
0 -59 11 -86 25 -58 29 -70 31 -82 9 -7 -13 -1 -29 22 -61 27 -39 31 -53 31
-113 0 -60 -4 -74 -30 -112 -43 -62 -104 -91 -175 -84 -115 12 -114 12 -118
-7 -2 -11 12 -33 35 -56 134 -129 35 -349 -153 -340 -51 3 -58 0 -65 -19 -7
-18 -3 -25 19 -39 15 -9 40 -28 55 -42 124 -112 53 -319 -115 -340 -48 -5 -53
-9 -56 -33 -3 -22 1 -27 30 -33 50 -11 102 -51 128 -98 65 -113 -3 -268 -128
-293 -28 -6 -33 -10 -30 -33 3 -23 9 -27 49 -32 112 -16 182 -93 182 -200 0
-74 -36 -138 -98 -175 -48 -28 -50 -31 -35 -54 7 -11 24 -14 67 -12 111 5 200
-74 211 -187 5 -60 -24 -130 -69 -163 -53 -40 -31 -86 29 -61 53 22 135 12
186 -24 51 -36 86 -102 86 -162 0 -46 -28 -122 -49 -135 -16 -11 -13 -46 5
-53 9 -3 32 3 52 15 79 44 163 37 228 -20 72 -63 94 -159 54 -237 -19 -38 -19
-39 1 -57 19 -17 20 -17 47 8 44 42 86 58 150 58 47 0 67 -5 105 -29 72 -46
108 -133 87 -212 -10 -38 -10 -44 6 -56 26 -19 28 -17 58 27 46 70 134 101
218 76 89 -26 148 -106 148 -201 0 -33 4 -45 15 -45 8 0 18 -1 22 -1 4 -1 19
21 34 47 14 28 44 62 68 79 37 26 51 30 111 30 60 0 74 -4 111 -30 49 -34 80
-82 88 -134 5 -30 11 -37 34 -39 17 -2 27 1 27 10 0 35 24 92 53 125 101 115
276 87 337 -53 16 -36 22 -41 44 -37 24 5 26 9 26 58 0 113 88 201 199 199 69
-1 109 -21 157 -78 30 -36 41 -43 55 -35 15 8 17 19 13 77 -5 57 -2 74 18 111
33 64 86 103 147 109 74 7 118 -5 160 -44 43 -38 53 -41 71 -19 11 13 9 23 -5
56 -82 180 114 354 287 255 35 -20 38 -20 54 -4 16 16 16 19 -9 55 -57 84 -55
174 6 248 54 66 133 89 219 63 33 -10 41 -9 56 5 15 16 13 20 -25 59 -50 51
-63 82 -63 149 0 120 95 205 219 197 54 -3 56 -2 59 23 2 21 -3 29 -26 38 -39
16 -77 57 -96 103 -51 122 30 259 161 275 40 4 54 10 59 25 7 25 0 32 -49 48
-114 36 -168 165 -118 277 21 46 84 98 131 108 36 8 41 15 33 43 -4 18 -13 22
-47 22 -93 1 -177 86 -184 187 -5 77 25 136 90 178 45 29 60 57 38 70 -6 4
-42 7 -79 8 -61 2 -74 6 -108 33 -107 86 -112 234 -12 319 26 22 31 30 22 43
-11 17 -15 18 -95 6 -70 -10 -111 2 -162 47 -35 31 -50 53 -62 95 -14 49 -14
59 0 107 9 30 25 62 36 72 24 22 25 38 5 55 -13 11 -22 10 -53 -8 -88 -49
-178 -37 -248 34 -62 61 -76 155 -36 231 17 31 15 41 -9 53 -17 10 -24 7 -43
-13 -97 -104 -268 -74 -327 58 -19 42 -23 105 -10 140 9 22 -4 45 -25 45 -8 0
-35 -22 -61 -49 -60 -61 -113 -79 -187 -62 -96 22 -147 83 -156 186 -5 55 -7
60 -30 62 -21 3 -29 -5 -49 -48 -31 -67 -83 -101 -161 -107 -108 -8 -197 62
-215 169 -6 33 -11 39 -31 39 -14 0 -26 -6 -29 -12z m299 -433 c484 -73 931
-360 1208 -775 96 -145 238 -472 238 -549 0 -18 -3 -18 -42 -4 -22 8 -49 18
-58 23 -12 6 -23 5 -36 -5 -30 -22 -45 -18 -106 30 -32 25 -61 45 -66 45 -5 0
-19 12 -33 26 -15 16 -30 23 -43 20 -12 -3 -32 6 -53 24 -24 22 -44 30 -71 30
-20 1 -55 7 -77 15 -57 21 -62 19 -90 -25 -59 -93 -158 -92 -204 3 -12 24 -21
53 -21 64 0 13 -13 31 -31 43 -28 21 -31 21 -48 6 -10 -9 -25 -14 -33 -11 -9
4 -19 -4 -28 -20 -16 -30 -52 -42 -85 -27 -40 19 -56 109 -30 175 13 31 -38
20 -84 -19 -35 -31 -47 -35 -74 -30 -108 21 -124 20 -168 -13 -32 -23 -54 -31
-85 -31 -23 0 -57 -6 -75 -14 -19 -7 -41 -11 -49 -8 -32 10 -138 93 -206 159
-39 38 -93 84 -120 102 -27 19 -59 45 -71 59 l-22 27 -56 -29 c-36 -18 -64
-26 -79 -22 -13 3 -40 -1 -60 -9 -19 -8 -46 -15 -59 -15 -13 0 -41 -13 -62
-30 -21 -16 -43 -30 -50 -30 -7 0 -20 -11 -29 -25 -10 -15 -26 -25 -41 -25
-13 0 -27 -4 -30 -10 -3 -5 -21 -10 -39 -10 -27 0 -43 -10 -87 -55 -29 -30
-61 -55 -70 -55 -32 0 -138 -78 -152 -112 -18 -44 -81 -98 -113 -98 -31 0 -57
-13 -111 -56 -23 -19 -56 -37 -73 -40 -17 -4 -35 -15 -41 -25 -6 -12 -21 -19
-38 -19 -19 0 -38 -11 -60 -35 -34 -38 -111 -82 -111 -65 0 6 11 57 26 113
143 571 535 1017 1088 1237 105 41 283 86 396 99 52 6 111 13 130 15 61 7 284
-4 384 -19z m1493 -1797 c-21 -590 -302 -1101 -782 -1423 -598 -401 -1377
-399 -1976 4 -249 168 -442 381 -579 644 -53 101 -87 190 -132 342 -40 138
-57 254 -65 433 l-6 152 1773 0 1773 0 -6 -152z"/>
<path d="M2784 3034 c-10 -54 6 -105 38 -123 24 -14 28 -14 47 3 21 19 20 30
-2 32 -7 0 -20 2 -30 2 -14 2 -17 11 -15 59 3 47 0 58 -14 61 -13 2 -19 -6
-24 -34z"/>
<path d="M2864 3032 c-25 -16 -8 -61 24 -62 7 0 12 14 12 35 0 34 -12 43 -36
27z"/>
<path d="M2921 2988 c1 -18 3 -25 6 -16 2 10 10 15 19 11 21 -8 17 10 -6 25
-19 11 -20 10 -19 -20z"/>
<path d="M3060 2900 c0 -53 57 -110 110 -110 12 0 35 14 52 32 l29 32 -25 13
c-14 7 -44 15 -68 18 -23 3 -50 12 -58 20 -23 21 -40 19 -40 -5z"/>
<path d="M887 2023 c-15 -14 -7 -43 12 -43 23 0 34 23 18 39 -13 13 -21 14
-30 4z"/>
<path d="M947 2024 c-4 -4 -2 -13 4 -20 7 -8 10 -43 7 -89 l-3 -75 33 0 c30 0
33 2 27 23 l-6 22 17 -22 c17 -23 74 -33 74 -13 0 6 -4 10 -8 10 -12 0 -44 59
-37 70 3 6 13 10 21 10 8 0 14 5 14 10 0 6 -13 10 -29 10 -21 0 -31 -6 -36
-22 -6 -18 -9 -11 -14 32 -5 50 -9 55 -31 58 -14 2 -29 0 -33 -4z"/>
<path d="M1651 2016 c-16 -19 -6 -36 20 -36 15 0 20 6 17 22 -4 27 -21 33 -37
14z"/>
<path d="M1715 2021 c-3 -5 -1 -12 5 -16 11 -7 14 -137 4 -148 -3 -3 -12 -3
-20 0 -9 3 -14 21 -14 54 0 48 -1 49 -30 49 -16 0 -30 -4 -30 -10 0 -5 5 -10
10 -10 6 0 10 -18 10 -40 0 -33 -3 -40 -20 -40 -17 0 -20 7 -20 50 0 48 -1 50
-28 50 -27 0 -28 -2 -28 -45 1 -60 -18 -62 -22 -2 -3 44 -5 47 -32 47 -28 0
-29 -1 -23 -37 13 -84 5 -80 165 -82 l143 -1 -3 82 c-2 46 -5 89 -7 96 -5 14
-51 16 -60 3z"/>
<path d="M1866 2021 c-3 -5 1 -11 9 -15 8 -3 15 -15 15 -26 0 -15 -7 -20 -29
-20 -37 0 -61 -23 -61 -59 0 -42 26 -59 93 -60 31 0 57 4 57 9 0 6 -4 10 -10
10 -6 0 -10 35 -10 85 l0 85 -29 0 c-17 0 -32 -4 -35 -9z m22 -118 c-2 -26 -8
-38 -18 -38 -10 0 -16 12 -18 38 -3 32 0 37 18 37 18 0 21 -5 18 -37z"/>
<path d="M2586 2009 c-14 -11 -26 -26 -26 -34 0 -7 -6 -16 -12 -18 -10 -4 -10
-8 1 -15 10 -7 12 -23 9 -56 l-6 -46 39 0 c22 0 39 5 39 10 0 6 -4 10 -10 10
-18 0 -11 72 8 86 16 13 16 13 0 14 -12 0 -18 8 -17 23 0 12 3 16 6 10 6 -16
29 -17 38 -3 8 13 -13 40 -30 40 -7 0 -24 -9 -39 -21z"/>
<path d="M3135 2021 c-3 -5 -1 -12 5 -16 13 -8 13 -145 0 -145 -5 0 -10 -4
-10 -10 0 -5 18 -10 40 -10 22 0 40 5 40 10 0 6 -4 10 -10 10 -5 0 -10 8 -10
18 1 13 5 11 21 -10 14 -20 30 -28 50 -28 16 0 29 5 29 10 0 6 -4 10 -9 10
-15 0 -56 63 -44 67 5 2 19 10 29 18 18 13 16 14 -17 15 -28 0 -36 -4 -35 -16
0 -9 -5 -19 -11 -21 -10 -3 -13 11 -13 51 0 53 -1 56 -24 56 -14 0 -27 -4 -31
-9z"/>
<path d="M3415 2021 c-3 -5 -1 -12 5 -16 14 -9 13 -138 -2 -153 -9 -9 -3 -12
28 -12 l39 0 -3 83 c-2 45 -5 88 -7 95 -5 14 -51 16 -60 3z"/>
<path d="M693 1996 c13 -10 17 -28 17 -75 0 -34 -4 -61 -10 -61 -5 0 -10 -4
-10 -10 0 -13 101 -13 134 0 30 11 36 50 11 70 -11 9 -13 16 -5 24 15 15 12
53 -6 60 -9 3 -46 6 -82 6 -58 -1 -65 -2 -49 -14z m92 -31 c0 -10 -6 -20 -12
-22 -8 -3 -13 5 -13 22 0 17 5 25 13 23 6 -3 12 -13 12 -23z m10 -65 c8 -24
-1 -40 -21 -40 -9 0 -14 11 -14 30 0 35 25 42 35 10z"/>
<path d="M1303 1992 c22 -25 24 -120 2 -128 -33 -13 -11 -24 48 -24 68 0 107
18 107 50 0 10 -9 25 -20 33 -18 12 -18 15 -5 20 18 7 20 38 3 55 -7 7 -41 12
-82 12 -66 0 -68 -1 -53 -18z m92 -26 c0 -30 -22 -30 -27 -1 -4 20 -2 25 11
23 9 -2 16 -12 16 -22z m4 -60 c14 -16 4 -46 -15 -46 -9 0 -14 11 -14 30 0 32
11 38 29 16z"/>
<path d="M2700 2000 c0 -5 5 -10 10 -10 6 0 10 -28 10 -65 0 -37 -4 -65 -10
-65 -5 0 -10 -4 -10 -10 0 -13 101 -13 134 0 30 11 35 44 11 70 -14 15 -14 18
0 30 19 16 19 25 -1 44 -18 18 -144 23 -144 6z m98 -32 c-5 -32 -28 -35 -28
-4 0 17 5 26 16 26 10 0 14 -7 12 -22z m7 -78 c0 -16 -6 -26 -17 -28 -14 -3
-18 3 -18 28 0 25 4 31 18 28 11 -2 17 -12 17 -28z"/>
<path d="M1140 1958 c-13 -5 -28 -14 -32 -21 -14 -22 -8 -64 10 -80 22 -20 73
-22 90 -5 19 19 14 30 -7 18 -23 -12 -51 -3 -51 16 0 9 12 14 34 14 42 0 50
10 31 37 -18 26 -44 33 -75 21z m26 -35 c-10 -10 -19 5 -10 18 6 11 8 11 12 0
2 -7 1 -15 -2 -18z"/>
<path d="M1993 1960 c-23 -9 -43 -39 -43 -64 0 -45 75 -72 116 -42 25 19 12
31 -16 14 -18 -11 -23 -10 -36 7 -14 19 -13 20 25 23 32 2 41 7 41 21 0 33
-49 56 -87 41z m37 -31 c0 -5 -7 -9 -15 -9 -9 0 -12 6 -9 15 6 15 24 11 24 -6z"/>
<path d="M2433 1960 c-43 -18 -55 -68 -23 -100 43 -43 120 -15 120 43 0 25
-22 57 -40 57 -5 0 -14 2 -22 4 -7 3 -23 1 -35 -4z m45 -59 c3 -37 1 -42 -15
-39 -20 4 -28 28 -19 65 10 37 31 22 34 -26z"/>
<path d="M2920 1958 c-13 -5 -28 -14 -32 -21 -13 -20 -9 -65 8 -81 18 -19 75
-21 92 -4 19 19 14 30 -9 18 -25 -14 -49 -6 -49 15 0 11 10 15 35 15 28 0 35
4 35 19 0 33 -41 54 -80 39z m30 -23 c0 -8 -4 -15 -10 -15 -5 0 -10 7 -10 15
0 8 5 15 10 15 6 0 10 -7 10 -15z"/>
<path d="M3323 1960 c-23 -9 -43 -39 -43 -64 0 -45 75 -72 116 -42 25 19 12
31 -16 14 -18 -11 -23 -10 -36 7 -14 19 -13 20 25 23 32 2 41 7 41 21 0 33
-49 56 -87 41z m37 -31 c0 -5 -7 -9 -15 -9 -9 0 -12 6 -9 15 6 15 24 11 24 -6z"/>
<path d="M3540 1958 c-30 -11 -40 -25 -40 -59 0 -54 78 -80 115 -39 20 22 14
26 -15 10 -22 -12 -50 -3 -50 15 0 9 14 15 38 17 32 3 37 6 35 26 -4 34 16 17
38 -32 26 -58 25 -74 -6 -68 -18 3 -25 0 -25 -11 0 -9 5 -19 10 -22 23 -14 47
9 86 85 39 77 40 80 19 80 -17 0 -22 -6 -22 -25 0 -14 -4 -29 -7 -33 -11 -10
-27 20 -22 41 4 15 -3 17 -53 15 -31 -1 -61 1 -66 4 -6 3 -21 1 -35 -4z m26
-35 c-10 -10 -19 5 -10 18 6 11 8 11 12 0 2 -7 1 -15 -2 -18z"/>
<path d="M860 1950 c0 -5 5 -10 10 -10 14 0 12 -74 -2 -88 -9 -9 -2 -12 31
-12 35 0 42 3 37 16 -3 9 -6 36 -6 60 0 44 0 44 -35 44 -19 0 -35 -4 -35 -10z"/>
<path d="M2095 1900 l0 -60 38 0 c20 0 37 5 37 10 0 6 -4 10 -10 10 -5 0 -10
16 -10 35 0 33 1 34 20 23 17 -11 22 -10 30 2 17 26 5 35 -51 37 l-54 3 0 -60z"/>
<path d="M2220 1940 c-8 -15 -6 -24 10 -40 11 -11 27 -20 35 -20 17 0 20 -16
5 -25 -5 -3 -18 3 -30 15 -26 26 -30 25 -30 -5 0 -23 4 -25 44 -25 69 0 91 50
33 78 -15 7 -27 17 -27 23 0 14 16 11 30 -6 17 -21 30 -19 30 5 0 17 -7 20
-45 20 -34 0 -47 -5 -55 -20z"/>
<path d="M3015 1900 l0 -60 38 0 c20 0 37 5 37 10 0 6 -4 10 -10 10 -5 0 -10
16 -10 35 0 37 8 43 28 23 16 -16 37 4 29 26 -5 12 -20 16 -59 16 l-53 0 0
-60z"/>
<path d="M1865 1698 l0 -63 75 -5 c41 -3 81 -4 88 -2 20 7 14 38 -10 56 l-23
17 23 -6 c16 -5 22 -2 22 10 0 12 -7 15 -27 13 -35 -4 -45 -43 -14 -53 12 -3
21 -11 21 -16 0 -13 -7 -11 -34 6 -21 14 -24 14 -36 0 -19 -23 -50 -19 -50 6
0 16 5 20 20 16 16 -4 20 0 20 18 0 13 5 25 12 27 6 2 9 12 5 21 -5 12 -18 17
-49 17 l-43 0 0 -62z m75 34 c0 -4 -5 -13 -12 -20 -18 -18 -28 -15 -28 8 0 13
7 20 20 20 11 0 20 -4 20 -8z"/>
<path d="M2058 1728 c-3 -7 -3 -32 0 -55 3 -36 8 -43 25 -43 16 0 18 3 9 12
-16 16 -15 55 0 60 9 3 8 9 -4 21 -20 20 -24 21 -30 5z"/>
<path d="M2216 1714 c-9 -8 -13 -20 -10 -26 5 -7 11 -5 19 5 7 10 17 17 24 17
21 0 11 -23 -21 -51 l-33 -28 48 -1 c46 0 69 19 25 21 -13 0 -17 3 -10 6 24
10 33 40 16 57 -20 20 -38 20 -58 0z"/>
<path d="M2317 1712 c-24 -27 -21 -59 8 -78 23 -15 27 -15 50 0 30 20 33 56 7
79 -24 22 -45 21 -65 -1z m48 -37 c0 -43 -29 -40 -33 3 -3 28 0 33 15 30 13
-2 18 -12 18 -33z"/>
<path d="M2425 1717 c-11 -9 -15 -19 -10 -27 6 -10 11 -9 21 4 14 20 36 13 28
-8 -3 -7 -16 -18 -30 -24 -38 -18 -28 -32 21 -32 25 0 45 5 45 10 0 6 -10 10
-22 10 -21 1 -21 2 -5 11 21 13 22 55 1 63 -22 9 -28 8 -49 -7z"/>
<path d="M2533 1724 c-7 -3 -9 -18 -6 -41 4 -24 2 -38 -8 -44 -9 -6 -1 -8 26
-8 22 0 34 3 28 6 -8 3 -13 23 -13 49 0 43 -3 47 -27 38z"/>
<path d="M2120 1640 c0 -5 7 -10 15 -10 8 0 15 5 15 10 0 6 -7 10 -15 10 -8 0
-15 -4 -15 -10z"/>
</g>
</svg>
